<svg width="14" height="14" viewBox="0 0 14 14" fill="none" xmlns="http://www.w3.org/2000/svg">
<path d="M0.8125 2.5C0.8125 1.56802 1.56802 0.8125 2.5 0.8125H4.1875C5.11948 0.8125 5.875 1.56802 5.875 2.5V4.1875C5.875 5.11948 5.11948 5.875 4.1875 5.875H2.5C1.56802 5.875 0.8125 5.11948 0.8125 4.1875V2.5Z" stroke="#FCFCFC" stroke-width="1.5" stroke-linecap="round" stroke-linejoin="round"/>
<path d="M0.8125 9.8125C0.8125 8.88052 1.56802 8.125 2.5 8.125H4.1875C5.11948 8.125 5.875 8.88052 5.875 9.8125V11.5C5.875 12.432 5.11948 13.1875 4.1875 13.1875H2.5C1.56802 13.1875 0.8125 12.432 0.8125 11.5V9.8125Z" stroke="#FCFCFC" stroke-width="1.5" stroke-linecap="round" stroke-linejoin="round"/>
<path d="M8.125 2.5C8.125 1.56802 8.88052 0.8125 9.8125 0.8125H11.5C12.432 0.8125 13.1875 1.56802 13.1875 2.5V4.1875C13.1875 5.11948 12.432 5.875 11.5 5.875H9.8125C8.88052 5.875 8.125 5.11948 8.125 4.1875V2.5Z" stroke="#FCFCFC" stroke-width="1.5" stroke-linecap="round" stroke-linejoin="round"/>
<path d="M8.125 9.8125C8.125 8.88052 8.88052 8.125 9.8125 8.125H11.5C12.432 8.125 13.1875 8.88052 13.1875 9.8125V11.5C13.1875 12.432 12.432 13.1875 11.5 13.1875H9.8125C8.88052 13.1875 8.125 12.432 8.125 11.5V9.8125Z" stroke="#FCFCFC" stroke-width="1.5" stroke-linecap="round" stroke-linejoin="round"/>
</svg>
