<svg width="24" height="24" viewBox="0 0 24 24" fill="none" xmlns="http://www.w3.org/2000/svg">
<path d="M19.8 22.6L16.775 19.575C16.3583 19.8417 15.9167 20.071 15.45 20.263C14.9833 20.4543 14.5 20.6083 14 20.725V18.675C14.2333 18.5917 14.4627 18.5083 14.688 18.425C14.9127 18.3417 15.125 18.2417 15.325 18.125L12 14.8V20L7 15H3V9H6.2L1.4 4.2L2.8 2.8L21.2 21.2L19.8 22.6ZM19.6 16.8L18.15 15.35C18.4333 14.8333 18.646 14.2917 18.788 13.725C18.9293 13.1583 19 12.575 19 11.975C19 10.4083 18.5417 9.00834 17.625 7.775C16.7083 6.54167 15.5 5.70834 14 5.275V3.225C16.0667 3.69167 17.75 4.73734 19.05 6.362C20.35 7.98734 21 9.85834 21 11.975C21 12.8583 20.8793 13.7083 20.638 14.525C20.396 15.3417 20.05 16.1 19.6 16.8ZM16.25 13.45L14 11.2V7.95C14.7833 8.31667 15.396 8.86667 15.838 9.6C16.2793 10.3333 16.5 11.1333 16.5 12C16.5 12.25 16.4793 12.496 16.438 12.738C16.396 12.9793 16.3333 13.2167 16.25 13.45ZM12 9.2L9.4 6.6L12 4V9.2Z" fill="white"/>
</svg>
