<svg width="20" height="20" viewBox="0 0 20 20" fill="none" xmlns="http://www.w3.org/2000/svg">
<path d="M16 5.5V8.5M16 8.5V11.5M16 8.5H19M16 8.5H13M10.75 4.375C10.75 6.23896 9.23896 7.75 7.375 7.75C5.51104 7.75 4 6.23896 4 4.375C4 2.51104 5.51104 1 7.375 1C9.23896 1 10.75 2.51104 10.75 4.375ZM1.00092 17.2343C1.00031 17.198 1 17.1615 1 17.125C1 13.6042 3.85418 10.75 7.375 10.75C10.8958 10.75 13.75 13.6042 13.75 17.125V17.1276C13.75 17.1632 13.7497 17.1988 13.7491 17.2343C11.8874 18.3552 9.70647 19 7.375 19C5.04353 19 2.86264 18.3552 1.00092 17.2343Z" stroke="#FCFCFC" stroke-width="1.5" stroke-linecap="round" stroke-linejoin="round"/>
</svg>
