<svg width="20" height="20" viewBox="0 0 20 20" fill="none" xmlns="http://www.w3.org/2000/svg">
<path d="M7.59353 1.94005C7.68394 1.39759 8.15328 1 8.70322 1H11.2972C11.8471 1 12.3165 1.39759 12.4069 1.94005L12.6204 3.2211C12.6827 3.59514 12.9327 3.90671 13.2645 4.09036C13.3386 4.13142 13.412 4.17383 13.4844 4.21757C13.8094 4.41384 14.2048 4.47486 14.5603 4.34166L15.7772 3.88578C16.2922 3.69284 16.8712 3.90051 17.1461 4.37677L18.4431 6.62321C18.7181 7.09948 18.6084 7.70473 18.1839 8.05426L17.1795 8.88108C16.887 9.12188 16.742 9.49372 16.749 9.87253C16.7498 9.91492 16.7502 9.95742 16.7502 10C16.7502 10.0426 16.7498 10.0851 16.749 10.1275C16.742 10.5063 16.887 10.8781 17.1795 11.1189L18.1839 11.9457C18.6084 12.2953 18.7181 12.9005 18.4431 13.3768L17.1461 15.6232C16.8712 16.0995 16.2922 16.3071 15.7772 16.1142L14.5603 15.6583C14.2048 15.5251 13.8094 15.5862 13.4844 15.7824C13.412 15.8262 13.3386 15.8686 13.2645 15.9096C12.9327 16.0933 12.6827 16.4049 12.6204 16.7789L12.4069 18.0599C12.3165 18.6024 11.8471 19 11.2972 19H8.70322C8.15328 19 7.68394 18.6024 7.59353 18.0599L7.38002 16.7789C7.31768 16.4049 7.06771 16.0933 6.73594 15.9096C6.66176 15.8686 6.58844 15.8262 6.51601 15.7824C6.19098 15.5862 5.79565 15.5251 5.44008 15.6583L4.22322 16.1142C3.70822 16.3072 3.12923 16.0995 2.85426 15.6232L1.55728 13.3768C1.28231 12.9005 1.39196 12.2953 1.81654 11.9457L2.82089 11.1189C3.1134 10.8781 3.2584 10.5063 3.25138 10.1275C3.2506 10.0851 3.2502 10.0426 3.2502 10C3.2502 9.95742 3.2506 9.91493 3.25138 9.87254C3.2584 9.49373 3.1134 9.12189 2.82089 8.88109L1.81654 8.05427C1.39196 7.70475 1.28231 7.09949 1.55728 6.62323L2.85426 4.37679C3.12923 3.90052 3.70822 3.69286 4.22321 3.88579L5.44007 4.34167C5.79563 4.47487 6.19096 4.41385 6.516 4.21758C6.58843 4.17384 6.66176 4.13142 6.73594 4.09036C7.06771 3.90671 7.31768 3.59514 7.38002 3.2211L7.59353 1.94005Z" stroke="#FCFCFC" stroke-width="1.5" stroke-linecap="round" stroke-linejoin="round"/>
<path d="M13 9.99992C13 11.6568 11.6568 12.9999 9.99997 12.9999C8.34312 12.9999 6.99997 11.6568 6.99997 9.99992C6.99997 8.34307 8.34312 6.99992 9.99997 6.99992C11.6568 6.99992 13 8.34307 13 9.99992Z" stroke="#FCFCFC" stroke-width="1.5" stroke-linecap="round" stroke-linejoin="round"/>
</svg>
