<svg width="22" height="20" viewBox="0 0 22 20" fill="none" xmlns="http://www.w3.org/2000/svg">
<path d="M18.114 3.63542C21.6287 7.15014 21.6287 12.8486 18.114 16.3633M15.4626 6.28716C17.5129 8.33741 17.5129 11.6615 15.4626 13.7118M5.75 6.24944L10.4697 1.52977C10.9421 1.05729 11.75 1.39192 11.75 2.0601V17.9388C11.75 18.607 10.9421 18.9416 10.4697 18.4691L5.75 13.7494H3.50905C2.62971 13.7494 1.8059 13.243 1.57237 12.3952C1.36224 11.6324 1.25 10.829 1.25 9.99944C1.25 9.16985 1.36224 8.36648 1.57237 7.60368C1.8059 6.75591 2.62971 6.24944 3.50905 6.24944H5.75Z" stroke="#FCFCFC" stroke-width="1.5" stroke-linecap="round" stroke-linejoin="round"/>
</svg>
